<?xml version="1.0" encoding="UTF-8" standalone="no"?><!DOCTYPE svg PUBLIC "-//W3C//DTD SVG 1.1//EN" "http://www.w3.org/Graphics/SVG/1.1/DTD/svg11.dtd"><svg xmlns="http://www.w3.org/2000/svg" version="1.1" width="383" height="126"><path fill="none" stroke="#000000" stroke-width="2" stroke-linecap="round" stroke-linejoin="round" d="M 19 15 c 0.23 -0.12 8.56 -5.47 13 -7 c 5.84 -2.01 12.85 -2.34 19 -4 c 2.41 -0.65 4.74 -2.48 7 -3 c 1.78 -0.41 3.99 -0.14 6 0 c 2.7 0.19 5.47 0.42 8 1 c 1.69 0.39 3.37 1.18 5 2 c 7.86 3.93 15.89 9.06 23 12 c 1.64 0.68 5.72 -1.01 6 0 c 1.01 3.71 1.98 15.93 0 22 c -2.83 8.66 -9.63 19.97 -16 27 c -5.69 6.27 -15.28 12.14 -23 16 c -4.81 2.41 -13.49 4 -17 4 c -0.9 0 -1.81 -2.68 -2 -4 c -0.42 -2.95 -0.45 -6.83 0 -10 c 0.52 -3.62 2.4 -7.4 3 -11 c 0.37 -2.21 -0.54 -4.98 0 -7 c 0.69 -2.58 2.27 -5.7 4 -8 c 4.1 -5.47 9.23 -12.06 14 -16 c 2.13 -1.76 6.1 -2.76 9 -3 c 4.6 -0.38 10.95 -0.16 15 1 c 2.1 0.6 4.7 3.05 6 5 c 2.39 3.58 3.28 9.85 6 13 c 3 3.48 11.72 5.24 13 9 c 3.09 9.07 2.43 25.84 3 38 c 0.08 1.63 -0.26 3.97 -1 5 c -0.65 0.9 -2.67 1.89 -4 2 c -6.25 0.5 -15.28 2.32 -21 0 c -18.04 -7.31 -38.81 -20.58 -58 -32 c -7.48 -4.45 -13.7 -10.34 -21 -15 c -4.81 -3.07 -13.86 -6.6 -15 -8 c -0.45 -0.55 4.01 -2.94 6 -3 c 17.49 -0.54 39.44 -0.68 59 1 c 15.48 1.33 32.52 3.21 46 8 c 10.25 3.64 20.5 11.97 30 19 c 8.53 6.32 15.97 13.59 24 21 c 5.34 4.93 9.68 11.1 15 15 c 4.15 3.05 10.82 4.36 15 7 c 1.62 1.02 3.87 3.58 4 5 c 0.14 1.49 -1.56 5.18 -3 6 c -2.39 1.37 -7.32 1.77 -11 2 c -6.92 0.43 -14.68 1.58 -21 0 c -13.81 -3.45 -28.78 -9.81 -43 -16 c -14.55 -6.34 -28.26 -13.23 -42 -21 c -9.5 -5.37 -18.42 -11.69 -27 -18 c -2.62 -1.92 -6.46 -4.82 -7 -7 c -0.52 -2.09 1.18 -7.5 3 -9 c 2.86 -2.35 9.26 -4.34 14 -5 c 20.82 -2.9 42.87 -4.59 65 -6 c 9.83 -0.63 20.09 0.52 29 0 c 1.65 -0.1 5.18 -1.56 5 -2 c -0.25 -0.62 -5.26 -1.46 -7 -3 c -6.61 -5.87 -13.65 -13.71 -20 -21 c -2.67 -3.07 -4.67 -7.67 -7 -10 c -0.79 -0.79 -2.68 -0.87 -4 -1 c -1.93 -0.19 -4.51 -0.5 -6 0 c -1.06 0.35 -3.17 2.11 -3 3 c 0.57 3.02 3.27 9.55 6 13 c 4.46 5.62 10.88 11.48 17 16 c 7.65 5.65 17.25 9.26 25 15 c 10.18 7.54 18.83 17.79 29 25 c 7.85 5.56 17.08 10.01 26 14 c 6.69 2.99 14.29 5.19 21 7 c 1.52 0.41 4.74 0.79 5 0 c 0.63 -1.89 0.52 -8.79 -1 -12 c -3.92 -8.27 -10.48 -20.32 -17 -26 c -4.91 -4.28 -17.95 -5.06 -22 -8 c -1.38 -1.01 1.05 -6.48 0 -8 c -1.36 -1.96 -6.26 -4.27 -9 -5 c -1.62 -0.43 -4.16 0.33 -6 1 c -5.29 1.92 -14.31 3.62 -16 7 c -2.22 4.45 -0.04 15.73 1 23 c 0.57 3.99 2.23 8.66 4 12 c 0.99 1.86 3.2 3.53 5 5 c 1.83 1.5 4.05 3.35 6 4 c 1.62 0.54 4.11 0.29 6 0 c 2.3 -0.35 4.8 -1.06 7 -2 c 4.74 -2.03 9.71 -4.26 14 -7 c 3.89 -2.49 8.04 -5.56 11 -9 c 5.09 -5.91 9.07 -15.07 14 -20 c 2.17 -2.17 7.11 -2.44 10 -4 c 1.14 -0.61 2.61 -1.96 3 -3 c 0.46 -1.23 -0.05 -5.11 0 -5 c 0.1 0.2 1 6.4 2 9 c 0.54 1.41 2.27 4.1 3 4 c 0.93 -0.13 2.51 -3.51 4 -5 c 2.15 -2.15 4.82 -3.82 7 -6 c 2.85 -2.85 5.14 -6.33 8 -9 c 2.04 -1.91 4.98 -3.18 7 -5 c 1.17 -1.06 2.21 -3.87 3 -4 c 0.67 -0.11 2.81 1.9 3 3 c 0.64 3.62 -0.34 9.28 0 14 c 0.68 9.5 1.49 24.83 3 28 c 0.51 1.06 5.28 -4 8 -5 c 3.23 -1.19 9.65 -0.29 11 -2 c 1.45 -1.84 -0.15 -11.4 0 -12 c 0.06 -0.22 1.01 3.16 2 4 c 2.88 2.44 7.34 6.25 11 7 c 6.46 1.33 15.27 -0.25 23 0 c 2.71 0.09 5.47 0.42 8 1 c 1.69 0.39 4.2 0.9 5 2 c 1.41 1.94 1.45 7.73 3 9 c 1.31 1.07 5.97 -0.55 8 0 c 1.07 0.29 1.96 2.61 3 3 c 1.23 0.46 4.24 -0.63 5 0 c 0.77 0.64 1.16 3.6 1 5 l -2 4"/></svg>